<svg width="1200" height="630" viewBox="0 0 1200 630" fill="none" xmlns="http://www.w3.org/2000/svg">
  <rect width="1200" height="630" fill="#F0F6FA"/>

  <!-- Faint neural network / circuit pattern -->
  <g opacity="0.06" stroke="#1B2A4A" stroke-width="1" fill="none">
    <!-- Nodes -->
    <circle cx="120" cy="140" r="4" fill="#2E86AB" opacity="0.5"/>
    <circle cx="280" cy="80" r="3" fill="#2E86AB" opacity="0.4"/>
    <circle cx="200" cy="220" r="5" fill="#2E86AB" opacity="0.3"/>
    <circle cx="400" cy="150" r="3" fill="#2E86AB" opacity="0.4"/>
    <circle cx="340" cy="280" r="4" fill="#2E86AB" opacity="0.3"/>
    <circle cx="80" cy="350" r="3" fill="#2E86AB" opacity="0.4"/>
    <circle cx="180" cy="420" r="4" fill="#2E86AB" opacity="0.3"/>
    <circle cx="60" cy="520" r="3" fill="#2E86AB" opacity="0.4"/>
    <circle cx="250" cy="540" r="4" fill="#2E86AB" opacity="0.3"/>

    <circle cx="900" cy="100" r="4" fill="#2E86AB" opacity="0.4"/>
    <circle cx="1050" cy="160" r="3" fill="#2E86AB" opacity="0.5"/>
    <circle cx="980" cy="250" r="5" fill="#2E86AB" opacity="0.3"/>
    <circle cx="1120" cy="300" r="3" fill="#2E86AB" opacity="0.4"/>
    <circle cx="850" cy="340" r="4" fill="#2E86AB" opacity="0.3"/>
    <circle cx="1080" cy="430" r="3" fill="#2E86AB" opacity="0.4"/>
    <circle cx="950" cy="500" r="4" fill="#2E86AB" opacity="0.3"/>
    <circle cx="1140" cy="540" r="3" fill="#2E86AB" opacity="0.4"/>
    <circle cx="820" cy="520" r="3" fill="#2E86AB" opacity="0.3"/>

    <!-- Connections left side -->
    <line x1="120" y1="140" x2="280" y2="80"/>
    <line x1="120" y1="140" x2="200" y2="220"/>
    <line x1="280" y1="80" x2="400" y2="150"/>
    <line x1="200" y1="220" x2="340" y2="280"/>
    <line x1="200" y1="220" x2="80" y2="350"/>
    <line x1="80" y1="350" x2="180" y2="420"/>
    <line x1="340" y1="280" x2="180" y2="420"/>
    <line x1="180" y1="420" x2="60" y2="520"/>
    <line x1="180" y1="420" x2="250" y2="540"/>
    <line x1="60" y1="520" x2="250" y2="540"/>

    <!-- Connections right side -->
    <line x1="900" y1="100" x2="1050" y2="160"/>
    <line x1="1050" y1="160" x2="980" y2="250"/>
    <line x1="1050" y1="160" x2="1120" y2="300"/>
    <line x1="980" y1="250" x2="850" y2="340"/>
    <line x1="980" y1="250" x2="1120" y2="300"/>
    <line x1="850" y1="340" x2="1080" y2="430"/>
    <line x1="1120" y1="300" x2="1080" y2="430"/>
    <line x1="1080" y1="430" x2="950" y2="500"/>
    <line x1="850" y1="340" x2="820" y2="520"/>
    <line x1="950" y1="500" x2="1140" y2="540"/>
    <line x1="820" y1="520" x2="950" y2="500"/>
  </g>

  <!-- Faint DENIED stamp, tilted behind content -->
  <g transform="translate(600, 290) rotate(-18)" opacity="0.09">
    <rect x="-220" y="-50" width="440" height="100" rx="12" stroke="#E8614D" stroke-width="6" fill="none"/>
    <text x="0" y="18" font-family="system-ui, sans-serif" font-size="72" font-weight="900" fill="#E8614D" text-anchor="middle" letter-spacing="14">DENIED</text>
  </g>

  <!-- Large stat: 11.8% -->
  <text x="600" y="200" font-family="system-ui, sans-serif" font-size="120" font-weight="800" fill="#E8614D" text-anchor="middle" opacity="0.5">11.8%</text>

  <!-- Title -->
  <text x="600" y="270" font-family="system-ui, sans-serif" font-size="36" font-weight="700" fill="#1B2A4A" text-anchor="middle">How Much Revenue Is Your Practice</text>
  <text x="600" y="320" font-family="system-ui, sans-serif" font-size="36" font-weight="700" fill="#1B2A4A" text-anchor="middle">Losing to Claim Denials?</text>

  <!-- Divider -->
  <rect x="540" y="345" width="120" height="3" rx="1.5" fill="#2E86AB"/>

  <!-- Subtitle -->
  <text x="600" y="390" font-family="system-ui, sans-serif" font-size="16" fill="#6B7280" text-anchor="middle">The average initial denial rate hit 11.8% in 2024.</text>
  <text x="600" y="415" font-family="system-ui, sans-serif" font-size="16" fill="#6B7280" text-anchor="middle">For most practices, the real cost is six figures a year.</text>

  <!-- Three stat pills at bottom -->
  <g transform="translate(140, 470)">
    <rect x="0" y="0" width="260" height="70" rx="12" fill="white" stroke="#E8614D" stroke-width="1.5"/>
    <text x="130" y="28" font-family="system-ui, sans-serif" font-size="11" fill="#E8614D" text-anchor="middle" letter-spacing="1" font-weight="500">NEVER RESUBMITTED</text>
    <text x="130" y="55" font-family="system-ui, sans-serif" font-size="24" font-weight="700" fill="#1B2A4A" text-anchor="middle">65% of denials</text>
  </g>

  <g transform="translate(470, 470)">
    <rect x="0" y="0" width="260" height="70" rx="12" fill="white" stroke="#2E86AB" stroke-width="1.5"/>
    <text x="130" y="28" font-family="system-ui, sans-serif" font-size="11" fill="#2E86AB" text-anchor="middle" letter-spacing="1" font-weight="500">REWORK COST PER CLAIM</text>
    <text x="130" y="55" font-family="system-ui, sans-serif" font-size="24" font-weight="700" fill="#1B2A4A" text-anchor="middle">$57 average</text>
  </g>

  <g transform="translate(800, 470)">
    <rect x="0" y="0" width="260" height="70" rx="12" fill="white" stroke="#E8614D" stroke-width="1.5"/>
    <text x="130" y="28" font-family="system-ui, sans-serif" font-size="11" fill="#E8614D" text-anchor="middle" letter-spacing="1" font-weight="500">PREVENTABLE</text>
    <text x="130" y="55" font-family="system-ui, sans-serif" font-size="24" font-weight="700" fill="#1B2A4A" text-anchor="middle">90% of denials</text>
  </g>

  <!-- Source -->
  <text x="600" y="590" font-family="system-ui, sans-serif" font-size="10" fill="#9CA3AF" text-anchor="middle">Sources: Kodiak Solutions 2025, Experian Health 2025, Advisory Board, Premier Inc. 2025</text>
</svg>
